 <svg  version="1.0" xmlns="http://www.w3.org/2000/svg"  width="193.000000pt" height="193.000000pt" viewBox="0 0 193.000000 193.000000"  preserveAspectRatio="xMidYMid meet">  <g transform="translate(0.000000,193.000000) scale(0.100000,-0.100000)" fill="white" stroke="none" scale="1.75"> <path d="M458 1423 l-108 -56 0 -412 0 -412 61 -7 c34 -3 73 -6 85 -6 l24 0 0 385 c0 212 3 385 8 384 4 0 80 -80 169 -177 l162 -177 -95 -95 -94 -95 0 -125 0 -125 314 314 314 314 -1 133 c-1 74 -4 134 -6 134 -2 0 -73 -70 -158 -155 -85 -85 -158 -155 -162 -155 -5 0 -93 88 -197 195 -103 107 -193 195 -199 195 -5 0 -58 -26 -117 -57z"/> <path d="M1412 1070 c2 -220 2 -400 0 -400 -1 0 -54 53 -117 118 l-115 117 -31 -35 c-17 -19 -42 -50 -57 -68 l-25 -33 114 -115 c63 -64 131 -129 151 -145 l37 -30 108 78 108 79 3 417 2 417 -91 0 -90 0 3 -400z"/> </g> </svg> 